<?xml version="1.0" encoding="UTF-8" standalone="no"?>
<!DOCTYPE svg PUBLIC "-//W3C//DTD SVG 1.1//EN" "http://www.w3.org/Graphics/SVG/1.1/DTD/svg11.dtd">
<svg width="100%" height="100%" viewBox="0 0 90 101" version="1.1" xmlns="http://www.w3.org/2000/svg" xmlns:xlink="http://www.w3.org/1999/xlink" xml:space="preserve" xmlns:serif="http://www.serif.com/" style="fill-rule:evenodd;clip-rule:evenodd;stroke-linejoin:round;stroke-miterlimit:2;">
    <g transform="matrix(1.312715,0,0,1.312715,-913.938144,-140.5)">
        <g id="_-Group-" serif:id="&lt;Group&gt;" transform="matrix(1,0,0,1,684.439777,62.400087)">
            <path id="_-Path-" serif:id="&lt;Path&gt;" d="M45.82,120.94L39.8,94.28L45.84,86.87L51.9,94.5C49.97,103.45 48.22,112.05 45.82,120.94Z" style="fill:rgb(160,133,189);fill-rule:nonzero;"/>
            <path id="_-Path-1" serif:id="&lt;Path&gt;" d="M45.82,77.33L39.71,70.19L45.8,44.63L51.97,70.31L45.82,77.33Z" style="fill:rgb(160,133,189);fill-rule:nonzero;"/>
            <path id="_-Path-2" serif:id="&lt;Path&gt;" d="M37.92,92.5L11.78,100.36L31.85,83.57L43.19,84.06L37.92,92.5Z" style="fill:rgb(160,133,189);fill-rule:nonzero;"/>
            <path id="_-Path-3" serif:id="&lt;Path&gt;" d="M48.25,80.52L54.02,72.2C62.64,69.49 70.92,66.82 79.78,64.62L59.59,81.3L48.25,80.52Z" style="fill:rgb(160,133,189);fill-rule:nonzero;"/>
            <path id="_-Path-4" serif:id="&lt;Path&gt;" d="M79.82,101.07C70.88,98.5 62.53,95.68 53.94,92.61L48.41,84.1L59.35,83.61L79.82,101.07Z" style="fill:rgb(160,133,189);fill-rule:nonzero;"/>
            <path id="_-Path-5" serif:id="&lt;Path&gt;" d="M43.35,80.55L32.24,81.15L11.93,64.21C20.78,66.53 29.1,69.34 37.71,72.24L43.35,80.55Z" style="fill:rgb(160,133,189);fill-rule:nonzero;"/>
        </g>
    </g>
</svg>
